# xmcd CD database file
#
# Track frame offsets:
#	150
#	1602
#	12611
#	21392
#	35200
#	48731
#	70053
#	80432
#	91506
#	96906
#	110627
#	119728
#	130462
#	142168
#	150221
#	159147
#	168624
#	185659
#	194997
#	199984
#	208320
#	220096
#	230840
#	247372
#	256571
#	266986
#	270814
#	277945
#	293804
#
# Disc length: 4200 seconds
#
# Revision: 1
# Processed by: cddbd v1.5.2PL0 Copyright (c) Steve Scherf et al.
# Submitted via: CDex 1.70beta3
#
DISCID=bd10661d
DTITLE=YOSHIJIRO SAKURAI - AFTER JAZZ SESSION VOL.1
DYEAR=2008
DGENRE=Jazz
TTITLE0=Intro
TTITLE1=Don Paulin - SUDDENLY
TTITLE2=Othella Dallas - Memories Of Yesterday
TTITLE3=Conjunto Carcara - Flying In To The Moon
TTITLE4=Nat Adderley Quintet - Book's Bossa
TTITLE5=Vladimir Shafranov Trio - Moon and Sand
TTITLE6=D'Rone and De Haas - Never Gonna Fall in Love Again
TTITLE7=Maria Koterbska - Today I Don't! Know Who He Is
TTITLE8=La Nueva Banda de Santisteban - Nuestro Ayer
TTITLE9=Bob Dusi - Engano
TTITLE10=Pierre Devevey - Aurelia
TTITLE11=Frank Ifield - I've Got You Under My Skin
TTITLE12=Hermanas Benitez - La Cancion De Las Gemelas
TTITLE13=Dimitri Cornell - South America
TTITLE14=Mongo Santamaria - Esperitu Libre -BEATCONDUCTOR REWORK-
TTITLE15=Vladimir and His Orchestra - Mambo Moderno
TTITLE16=Grupo Santa Grachia - La Fiesta De Santa Grachia
TTITLE17=Yambu - Ciriaco Valdez
TTITLE18=Grupo Xodo - Morena, Moreno
TTITLE19=Sonja Lumme - Time To Give
TTITLE20=Christine Chartrand - Pala Pala Pala
TTITLE21=Lisa Linn - Synge
TTITLE22=Jiggs Whigham - Absolutely Knot
TTITLE23=Guido Basso - Chiarina
TTITLE24=Heavy Joker - Leaving For Cala Bassa
TTITLE25=Emiliano Salvador - Luna Wanestain
TTITLE26=Bobby Rodriguez - HipTip
TTITLE27=Seguida - Yo Nunca Te Olvidare(Mi Amor)
TTITLE28=JUAN CARLOS OLIVA Y La Progresiva-Bass - Baby Comback
EXTD=YEAR: 2008
EXTT0=
EXTT1=
EXTT2=
EXTT3=
EXTT4=
EXTT5=
EXTT6=
EXTT7=
EXTT8=
EXTT9=
EXTT10=
EXTT11=
EXTT12=
EXTT13=
EXTT14=
EXTT15=
EXTT16=
EXTT17=
EXTT18=
EXTT19=
EXTT20=
EXTT21=
EXTT22=
EXTT23=
EXTT24=
EXTT25=
EXTT26=
EXTT27=
EXTT28=
PLAYORDER=
